<svg width="755" height="274" viewBox="0 0 755 274" fill="none" xmlns="http://www.w3.org/2000/svg">
<path d="M32.2 51.856C24.472 51.856 17.94 45.784 17.94 38.056C17.94 30.42 24.012 23.888 31.74 23.888C39.284 23.888 46 29.96 46 37.596C46 45.324 39.836 51.856 32.2 51.856ZM170.218 51.856C162.49 51.856 155.958 45.784 155.958 38.056C155.958 30.42 162.03 23.888 169.758 23.888C177.302 23.888 184.018 29.96 184.018 37.596C184.018 45.324 177.854 51.856 170.218 51.856ZM308.236 51.856C300.508 51.856 293.976 45.784 293.976 38.056C293.976 30.42 300.048 23.888 307.776 23.888C315.32 23.888 322.036 29.96 322.036 37.596C322.036 45.324 315.872 51.856 308.236 51.856ZM446.254 51.856C438.526 51.856 431.994 45.784 431.994 38.056C431.994 30.42 438.066 23.888 445.794 23.888C453.338 23.888 460.054 29.96 460.054 37.596C460.054 45.324 453.89 51.856 446.254 51.856ZM584.272 51.856C576.544 51.856 570.012 45.784 570.012 38.056C570.012 30.42 576.084 23.888 583.812 23.888C591.356 23.888 598.072 29.96 598.072 37.596C598.072 45.324 591.908 51.856 584.272 51.856ZM722.29 51.856C714.562 51.856 708.03 45.784 708.03 38.056C708.03 30.42 714.102 23.888 721.83 23.888C729.374 23.888 736.09 29.96 736.09 37.596C736.09 45.324 729.926 51.856 722.29 51.856ZM32.2 168.92C20.056 168.92 10.028 159.352 10.028 145C10.028 130.648 20.056 121.08 32.2 121.08C44.344 121.08 54.464 130.648 54.464 145C54.464 159.352 44.344 168.92 32.2 168.92ZM19.688 145C19.688 156.132 24.38 164.32 32.2 164.32C40.02 164.32 44.804 156.132 44.804 145C44.804 133.868 40.02 125.68 32.2 125.68C24.38 125.68 19.688 133.868 19.688 145ZM164.422 121.264C167.734 121.264 171.874 122.552 174.818 123.84L177.854 125.22V106.176L171.414 105.532C169.758 105.348 168.746 104.336 168.746 103.14C168.746 101.76 169.85 100.84 171.414 100.84H184.202C184.846 100.84 187.054 100.564 187.054 103.692V163.4H196.07C197.45 163.4 198.554 164.412 198.554 165.7C198.554 166.988 197.45 168 196.07 168H181.534C180.246 168 180.154 167.908 177.67 164.78C175.554 165.884 170.862 168.736 164.606 168.736C150.346 168.736 143.814 156.224 143.814 144.632C143.814 130.832 152.462 121.264 164.422 121.264ZM153.75 144.632C153.842 153.832 155.774 163.676 165.986 163.676C169.39 163.676 172.242 161.928 175.922 159.168C177.762 157.788 177.854 156.868 177.854 154.016V133.868L175.186 131.66C171.782 128.9 168.838 125.864 164.422 125.864C157.89 125.864 153.658 133.776 153.75 144.632ZM302.44 121.264C305.752 121.264 309.892 122.552 312.836 123.84L315.872 125.22V106.176L309.432 105.532C307.776 105.348 306.764 104.336 306.764 103.14C306.764 101.76 307.868 100.84 309.432 100.84H322.22C322.864 100.84 325.072 100.564 325.072 103.692V163.4H334.088C335.468 163.4 336.572 164.412 336.572 165.7C336.572 166.988 335.468 168 334.088 168H319.552C318.264 168 318.172 167.908 315.688 164.78C313.572 165.884 308.88 168.736 302.624 168.736C288.364 168.736 281.832 156.224 281.832 144.632C281.832 130.832 290.48 121.264 302.44 121.264ZM291.768 144.632C291.86 153.832 293.792 163.676 304.004 163.676C307.408 163.676 310.26 161.928 313.94 159.168C315.78 157.788 315.872 156.868 315.872 154.016V133.868L313.204 131.66C309.8 128.9 306.856 125.864 302.44 125.864C295.908 125.864 291.676 133.776 291.768 144.632ZM446.254 155.856C438.526 155.856 431.994 149.784 431.994 142.056C431.994 134.42 438.066 127.888 445.794 127.888C453.338 127.888 460.054 133.96 460.054 141.596C460.054 149.324 453.89 155.856 446.254 155.856ZM584.272 155.856C576.544 155.856 570.012 149.784 570.012 142.056C570.012 134.42 576.084 127.888 583.812 127.888C591.356 127.888 598.072 133.96 598.072 141.596C598.072 149.324 591.908 155.856 584.272 155.856ZM722.29 155.856C714.562 155.856 708.03 149.784 708.03 142.056C708.03 134.42 714.102 127.888 721.83 127.888C729.374 127.888 736.09 133.96 736.09 141.596C736.09 149.324 729.926 155.856 722.29 155.856ZM6.808 209.256C5.152 209.072 4.324 208.428 4.324 207.048C4.324 205.576 5.336 204.84 6.808 204.84H20.332C20.976 204.84 23.184 204.564 23.184 207.692V230.784L27.048 228.76C30.912 226.736 34.868 225.264 39.008 225.264C48.944 225.264 53.084 231.52 53.084 240.904V267.4H59.524C60.904 267.4 62.008 268.32 62.008 269.7C62.008 271.08 60.904 272 59.524 272H37.536C36.156 272 35.052 270.988 35.052 269.7C35.052 268.412 36.156 267.4 37.536 267.4H43.884V239.34C43.884 233.176 40.48 230.6 36.248 230.6C33.12 230.6 29.992 232.256 26.864 234.832L23 238.052V267.4H29.348C30.728 267.4 31.832 268.412 31.832 269.7C31.832 270.988 30.728 272 29.348 272H7.452C6.072 272 4.968 270.988 4.968 269.7C4.968 268.412 6.072 267.4 7.452 267.4H13.8V210.084L6.808 209.256ZM170.218 272.92C158.074 272.92 148.046 263.352 148.046 249C148.046 234.648 158.074 225.08 170.218 225.08C182.362 225.08 192.482 234.648 192.482 249C192.482 263.352 182.362 272.92 170.218 272.92ZM157.706 249C157.706 260.132 162.398 268.32 170.218 268.32C178.038 268.32 182.822 260.132 182.822 249C182.822 237.868 178.038 229.68 170.218 229.68C162.398 229.68 157.706 237.868 157.706 249ZM281.648 230.6C280.268 230.6 279.164 229.588 279.164 228.3C279.164 227.012 280.268 226 281.648 226H294.528C295.172 226 297.38 225.724 297.38 228.852V258.66C297.38 264.824 300.784 267.4 305.016 267.4C308.144 267.4 311.272 265.744 314.4 263.168L318.264 259.948V230.6H311.732C310.352 230.6 309.248 229.588 309.248 228.3C309.248 227.012 310.352 226 311.732 226H324.612C325.256 226 327.464 225.724 327.464 228.852V267.4H334.456C335.836 267.4 336.94 268.412 336.94 269.7C336.94 270.988 335.836 272 334.456 272H322.496C321.116 272 320.656 271.448 319.644 269.792L318.08 267.216L314.216 269.24C310.352 271.264 306.396 272.736 302.256 272.736C292.32 272.736 288.18 266.48 288.18 257.096V230.6H281.648ZM424.082 230.416C422.426 230.232 421.598 229.404 421.598 228.208C421.598 227.012 422.61 226 424.082 226H439.354C440.734 226 441.286 226.644 442.298 228.208L444.046 231.244L448.462 229.036C452.234 227.196 456.19 225.356 459.87 225.356C465.298 225.356 470.818 227.748 470.818 235.568C470.818 239.984 467.782 241.916 465.114 241.916C460.33 241.916 459.41 238.512 459.41 236.028V230.048C457.754 230.048 455.546 230.784 452.878 232.808C450.946 234.28 443.77 239.984 443.77 239.984V267.4H454.35C455.73 267.4 456.834 268.412 456.834 269.7C456.834 270.988 455.73 272 454.35 272H424.082C422.702 272 421.598 270.988 421.598 269.7C421.598 268.412 422.702 267.4 424.082 267.4H434.57V231.612L424.082 230.416ZM585.468 268.412C592.092 268.412 595.22 265.836 595.22 260.592C595.22 256.544 591.172 254.888 584.088 252.772C582.524 252.312 578.752 251.208 577.372 250.748C571.116 248.632 564.952 246.424 564.952 237.408C564.952 229.496 571.116 224.988 580.776 224.988C585.836 224.988 590.896 226 596.14 230.784V228.392C596.14 227.012 597.152 225.908 598.44 225.908C599.728 225.908 600.74 227.012 600.74 228.392V239.064C600.74 240.444 599.728 241.548 598.44 241.548C597.52 241.548 596.968 241.18 596.6 240.628C595.864 239.708 595.496 238.972 592.828 235.292C591.632 233.636 588.412 229.588 581.052 229.588C574.428 229.588 572.772 232.532 572.772 235.752C572.772 240.812 578.016 242.008 583.628 243.572L589.884 245.32C598.44 247.804 603.316 250.104 603.316 258.108C603.316 267.216 596.232 273.012 585.1 273.012C576.452 273.012 569.46 266.94 568.448 265.468V269.608C568.448 270.988 567.436 272.092 566.148 272.092C564.86 272.092 563.848 270.988 563.848 269.608V256.82C563.848 255.44 564.86 254.336 566.148 254.336C567.068 254.336 567.62 254.704 567.988 255.256C568.724 256.176 569.92 259.58 573.048 262.708C576.084 265.744 580.868 268.412 585.468 268.412ZM722.29 259.856C714.562 259.856 708.03 253.784 708.03 246.056C708.03 238.42 714.102 231.888 721.83 231.888C729.374 231.888 736.09 237.96 736.09 245.596C736.09 253.324 729.926 259.856 722.29 259.856Z" fill="#F5F749"/>
</svg>
