<?xml version="1.0" encoding="UTF-8"?>
<svg id="Layer_2" data-name="Layer 2" xmlns="http://www.w3.org/2000/svg" viewBox="0 0 395.13 180">
  <defs>
    <style>
      .cls-1 {
        fill: white;
      }
    </style>
  </defs>
  <g id="Layer_10" data-name="Layer 10">
    <path class="cls-1" d="M395.13,90.72c-.37,47.78-38.59,87.31-86.33,89.21-9.79.39-19.27-.79-28.18-3.31-3.38-.95-5.02-4.79-3.44-7.93,2.89-5.77,6.17-12.9,6.17-15.49,0-4.64-5.66-6.75-8.73-3.32-5.37,6.02-11.55,11.32-18.35,15.72-14.06,9.11-30.83,14.4-48.83,14.4-15.16,0-29.44-3.75-41.97-10.36-2.64-1.4-3.77-4.6-2.53-7.32,1.56-3.42,2.95-7.07,2.95-9.12,0-4.64-5.66-6.75-8.73-3.32-2.63,2.95-5.46,5.73-8.45,8.31-15.75,13.58-36.27,21.8-58.71,21.8C39.86,180-.71,138.99,0,88.7.7,39.86,40.84.18,89.67,0c22.57-.08,43.21,8.15,59.04,21.8,3,2.58,5.82,5.36,8.45,8.31,3.06,3.43,8.73,1.32,8.73-3.32,0-2.05-1.4-5.7-2.95-9.12-1.24-2.72-.11-5.92,2.53-7.32,12.53-6.62,26.81-10.36,41.97-10.36,18,0,34.77,5.29,48.83,14.4,6.8,4.4,12.97,9.69,18.35,15.72,3.06,3.43,8.73,1.32,8.73-3.32,0-2.59-3.28-9.72-6.17-15.49-1.6-3.19.13-7,3.57-7.97,7.76-2.18,15.94-3.34,24.39-3.34,49.94,0,90.38,40.68,89.99,90.72Z"/>
  </g>
</svg>