<?xml version="1.0" encoding="UTF-8"?>
<svg id="Layer_2" data-name="Layer 2" xmlns="http://www.w3.org/2000/svg" viewBox="0 0 1361.65 180">
  <defs>
    <style>
      .cls-1 {
        fill: #fffcf0;
      }
    </style>
  </defs>
  <g id="Layer_10" data-name="Layer 10">
    <g>
      <path class="cls-1" d="M31.36,171.57c-9.84-5.62-17.52-13.43-23.06-23.43C2.77,138.14,0,126.78,0,114.05s2.77-24.09,8.31-34.09c5.54-10,13.22-17.81,23.06-23.43,9.83-5.62,20.95-8.43,33.35-8.43s23.47,2.81,33.22,8.43c9.75,5.62,17.4,13.43,22.93,23.43,5.54,10,8.31,21.36,8.31,34.09s-2.77,24.09-8.31,34.09c-5.54,10-13.18,17.81-22.93,23.43-9.75,5.62-20.83,8.43-33.22,8.43s-23.52-2.81-33.35-8.43ZM80.83,147.27c4.63-3.14,8.18-7.56,10.66-13.26s3.72-12.35,3.72-19.96c0-11.57-2.77-20.78-8.31-27.64-5.54-6.86-12.94-10.29-22.19-10.29-6.12,0-11.49,1.57-16.12,4.71-4.63,3.14-8.18,7.56-10.66,13.26-2.48,5.7-3.72,12.36-3.72,19.96,0,11.57,2.77,20.79,8.31,27.64,5.53,6.86,12.93,10.29,22.19,10.29,6.11,0,11.48-1.57,16.11-4.71Z"/>
      <path class="cls-1" d="M156.69,167.23c-6.78-8.51-10.17-20.54-10.17-36.08V52.07h33.47v75.12c0,7.77,1.82,13.84,5.45,18.22,3.63,4.38,8.59,6.57,14.88,6.57,5.45,0,10.25-1.65,14.38-4.96,4.13-3.3,7.35-7.93,9.67-13.88,2.31-5.95,3.47-12.89,3.47-20.83l6.45,12.4c0,10.41-2.15,19.83-6.45,28.27-4.3,8.43-10.17,15.04-17.6,19.83-7.44,4.79-15.79,7.19-25.04,7.19-12.23,0-21.74-4.25-28.51-12.77ZM227.85,52.07h33.47v123.97h-33.47V52.07Z"/>
      <path class="cls-1" d="M272.48,52.07h97.44v28.01h-97.44v-28.01ZM299.26,136.37V12.15h33.47v120.99c0,4.96,1.24,8.68,3.72,11.15,2.48,2.48,6.2,3.72,11.16,3.72h22.31v28.02h-28.51c-28.1,0-42.15-13.22-42.15-39.67Z"/>
      <path class="cls-1" d="M454.59,171.57c-9.84-5.62-17.52-13.43-23.06-23.43-5.54-10-8.3-21.36-8.3-34.09s2.76-24.09,8.3-34.09c5.54-10,13.22-17.81,23.06-23.43,9.83-5.62,20.95-8.43,33.35-8.43s23.47,2.81,33.22,8.43c9.75,5.62,17.4,13.43,22.93,23.43,5.54,10,8.31,21.36,8.31,34.09s-2.77,24.09-8.31,34.09c-5.54,10-13.18,17.81-22.93,23.43-9.75,5.62-20.83,8.43-33.22,8.43s-23.52-2.81-33.35-8.43ZM504.05,147.27c4.62-3.14,8.18-7.56,10.66-13.26,2.48-5.7,3.72-12.35,3.72-19.96,0-11.57-2.77-20.78-8.31-27.64-5.54-6.86-12.93-10.29-22.19-10.29-6.12,0-11.49,1.57-16.12,4.71-4.63,3.14-8.18,7.56-10.66,13.26-2.48,5.7-3.72,12.36-3.72,19.96,0,11.57,2.76,20.79,8.31,27.64,5.53,6.86,12.93,10.29,22.19,10.29,6.11,0,11.49-1.57,16.12-4.71Z"/>
      <path class="cls-1" d="M554.87,52.07h97.44v28.01h-97.44v-28.01ZM623.8,0h28.51v28.01h-22.31c-9.92,0-14.88,4.96-14.88,14.88v133.14h-33.47V39.67c0-26.44,14.05-39.67,42.15-39.67Z"/>
      <path class="cls-1" d="M734.5,171.57c-9.84-5.62-17.52-13.43-23.06-23.43-5.54-10-8.31-21.36-8.31-34.09s2.77-24.09,8.31-34.09c5.54-10,13.22-17.81,23.06-23.43,9.83-5.62,20.95-8.43,33.35-8.43s23.47,2.81,33.22,8.43c9.75,5.62,17.39,13.43,22.93,23.43,5.54,10,8.31,21.36,8.31,34.09s-2.77,24.09-8.31,34.09c-5.54,10-13.18,17.81-22.93,23.43-9.76,5.62-20.83,8.43-33.22,8.43s-23.52-2.81-33.35-8.43ZM783.97,147.27c4.62-3.14,8.18-7.56,10.66-13.26,2.48-5.7,3.72-12.35,3.72-19.96,0-11.57-2.77-20.78-8.31-27.64-5.54-6.86-12.94-10.29-22.19-10.29-6.12,0-11.49,1.57-16.12,4.71-4.63,3.14-8.18,7.56-10.66,13.26-2.48,5.7-3.72,12.36-3.72,19.96,0,11.57,2.77,20.79,8.31,27.64,5.54,6.86,12.93,10.29,22.19,10.29,6.11,0,11.49-1.57,16.12-4.71Z"/>
      <path class="cls-1" d="M834.79,52.07h97.44v28.01h-97.44v-28.01ZM903.72,0h28.51v28.01h-22.31c-9.92,0-14.88,4.96-14.88,14.88v133.14h-33.47V39.67c0-26.44,14.05-39.67,42.15-39.67ZM932.23,52.07h97.44v28.01h-97.44v-28.01ZM1001.15,0h28.51v28.01h-22.31c-9.92,0-14.88,4.96-14.88,14.88v133.14h-33.47V39.67c0-26.44,14.05-39.67,42.15-39.67Z"/>
      <path class="cls-1" d="M1043.3,2.48h39.67v32.23h-39.67V2.48ZM1046.52,52.07h33.47v123.97h-33.47V52.07Z"/>
      <path class="cls-1" d="M1129.33,172.19c-9.75-5.21-17.23-12.72-22.44-22.56-5.21-9.83-7.81-21.45-7.81-34.84s2.64-25.33,7.93-35.33c5.29-10,12.81-17.73,22.56-23.18,9.75-5.45,21.16-8.18,34.21-8.18,11.24,0,21.28,2.07,30.12,6.2,8.84,4.13,15.95,10,21.32,17.6,5.37,7.6,8.63,16.61,9.79,27.02l-36.2,2.48c-1.65-8.76-4.51-15.16-8.55-19.21-4.05-4.05-9.54-6.08-16.49-6.08-5.95,0-11.03,1.45-15.25,4.34-4.22,2.9-7.4,7.23-9.55,13.02-2.15,5.79-3.22,12.81-3.22,21.07,0,12.4,2.36,21.74,7.07,28.02,4.71,6.28,11.69,9.42,20.95,9.42,6.94,0,12.44-1.94,16.49-5.82,4.05-3.88,6.9-9.87,8.55-17.98l36.2,2.48c-1.16,10.25-4.38,19.05-9.67,26.4-5.29,7.36-12.31,13.02-21.07,16.98-8.76,3.97-18.93,5.95-30.5,5.95-13.23,0-24.71-2.6-34.46-7.81Z"/>
      <path class="cls-1" d="M1269.04,171.82c-10-5.46-17.77-13.18-23.31-23.18-5.54-10-8.31-21.53-8.31-34.59s2.64-24.34,7.93-34.34c5.29-10,12.65-17.77,22.07-23.31,9.42-5.54,20.17-8.31,32.23-8.31s23.01,2.77,32.36,8.31c9.34,5.54,16.61,13.35,21.82,23.43,5.21,10.08,7.81,21.65,7.81,34.71v9.42h-89.75c0,5.45,1.28,10.29,3.84,14.5,2.56,4.21,6.15,7.52,10.78,9.92,4.63,2.4,9.83,3.59,15.62,3.59,6.11,0,11.49-1.32,16.12-3.97,4.62-2.64,7.85-6.28,9.67-10.91l33.72,2.48c-1.82,12.07-8.06,21.82-18.72,29.25-10.66,7.44-23.76,11.16-39.3,11.16-13.06,0-24.59-2.73-34.59-8.18ZM1323.96,86.9c-2.15-3.55-5.29-6.24-9.42-8.06-4.13-1.82-9.09-2.73-14.88-2.73-8.6,0-15.37,2.11-20.33,6.32-4.96,4.22-7.44,9.96-7.44,17.23h55.29c0-4.96-1.08-9.21-3.22-12.77Z"/>
    </g>
  </g>
</svg>